<svg width="21" height="22" viewBox="0 0 21 22" fill="none" xmlns="http://www.w3.org/2000/svg">
<path d="M14.7887 4.01974C15.9026 4.08132 16.947 4.58066 17.6944 5.40893C18.4417 6.23721 18.8313 7.32729 18.7784 8.44162C18.7784 11.0449 16.5311 12.644 14.3744 14.5617C12.2456 16.4625 11.099 17.5015 10.7279 17.7413C10.3237 17.4794 8.91184 16.1964 7.08139 14.5617C4.91537 12.6364 2.67731 11.022 2.67731 8.44162C2.6244 7.32729 3.01407 6.23721 3.76139 5.40893C4.50871 4.58066 5.55311 4.08132 6.667 4.01974C7.28405 4.00104 7.8954 4.14277 8.44127 4.43108C8.98714 4.7194 9.44887 5.14442 9.7813 5.6646C10.4931 6.66033 10.6118 7.15862 10.7304 7.15862C10.8491 7.15862 10.966 6.66033 11.6711 5.66206C12.0016 5.13947 12.4635 4.71276 13.0106 4.42457C13.5577 4.13638 14.1708 3.99679 14.7887 4.01974ZM14.7887 2.32489C14.0192 2.30025 13.2541 2.44953 12.5502 2.76161C11.8464 3.07369 11.222 3.54053 10.7236 4.12737C10.2257 3.54224 9.60259 3.07648 8.90044 2.76449C8.19829 2.45251 7.43501 2.30227 6.667 2.32489C5.10339 2.38603 3.6276 3.06383 2.56235 4.21007C1.4971 5.35631 0.929062 6.87772 0.982454 8.44162C0.982454 11.5008 3.1434 13.3796 5.23231 15.1956C5.47213 15.4041 5.71449 15.6143 5.95516 15.8286L6.82547 16.6066C7.77462 17.5098 8.76969 18.3634 9.80672 19.1641C10.0811 19.3418 10.401 19.4363 10.7279 19.4363C11.0547 19.4363 11.3746 19.3418 11.649 19.1641C12.7191 18.339 13.7448 17.4578 14.7218 16.5244L15.5031 15.8261C15.7514 15.6058 16.0031 15.3863 16.2531 15.1702C18.231 13.4542 20.4733 11.5093 20.4733 8.44162C20.5267 6.87772 19.9587 5.35631 18.8934 4.21007C17.8282 3.06383 16.3524 2.38603 14.7887 2.32489Z" fill="#262626"/>
</svg>
