<svg width="12" height="12" viewBox="0 0 12 12" fill="none" xmlns="http://www.w3.org/2000/svg">
<path d="M4.86287 2.5615L5.47687 1.9475C6.08368 1.34082 6.90665 1.00004 7.76472 1.00013C8.62279 1.00023 9.44568 1.34119 10.0524 1.948C10.659 2.55482 10.9998 3.37778 10.9997 4.23585C10.9996 5.09393 10.6587 5.91682 10.0519 6.5235L9.43837 7.137M7.13687 9.4385L6.52287 10.0525C5.91605 10.6592 5.09309 11 4.23501 10.9999C3.37694 10.9998 2.55405 10.6588 1.94737 10.052C1.34068 9.44519 0.999906 8.62222 1 7.76415C1.00009 6.90607 1.34105 6.08318 1.94787 5.4765L2.56137 4.863" stroke="#00376B" stroke-linecap="round" stroke-linejoin="round"/>
<path d="M4.23535 7.7645L7.76435 4.2355" stroke="#00376B" stroke-linecap="round" stroke-linejoin="round"/>
</svg>
